<?xml version="1.0" encoding="UTF-8"?> <svg xmlns="http://www.w3.org/2000/svg" id="Layer_1" version="1.1" viewBox="0 0 490.7 142.5"><defs><style> .st0 { fill: #0b74b9; } .st0, .st1, .st2 { fill-rule: evenodd; } .st1 { fill: #93c853; } .st3 { fill: #7c7d7f; } .st2 { fill: #5fc5ca; } </style></defs><path class="st2" d="M55.1,108.7l-23.7-13.9c2.7,14.1,11.6,25.5,23.9,32.6,7.7,4.4,14.8,4.4,22.5,0l33-19.1c7.7-4.4,11.3-10.6,11.3-19.4v-18.9c-3.9,11-11.4,19.7-21.3,25.7l-22.7,13c2-2.5,3.3-5.8,3.3-9.3,0-8.1-6.6-14.8-14.8-14.8s-14.8,6.6-14.8,14.8c-.1,3.5,1.1,6.8,3.3,9.4"></path><path class="st1" d="M105.9,60.2l-.2,27.5c10.9-9.4,16.3-22.9,16.3-36.9s-3.6-15-11.3-19.4l-33-19.1c-7.7-4.4-14.8-4.4-22.5,0l-16.3,9.5c11.5-2.1,22.8,0,32.9,5.6l22.6,13.2c-3.2-.5-6.6,0-9.7,1.8-7.1,4.1-9.5,13.1-5.4,20.2,4.1,7.1,13.1,9.5,20.2,5.4,3.1-1.8,5.3-4.5,6.5-7.7"></path><path class="st0" d="M38.4,40.3l24.1-13.6c-13.6-4.7-28.1-2.7-40.4,4.4-7.7,4.5-11.3,10.6-11.3,19.5v38.3c0,8.9,3.6,15.1,11.3,19.6l16.4,9.5c-7.6-8.9-11.5-19.8-11.6-31.5v-26.2c1.3,3.1,3.5,5.8,6.5,7.6,7.1,4.1,16.2,1.7,20.3-5.4,4.1-7.1,1.7-16.2-5.5-20.3-3.1-1.9-6.6-2.4-9.8-1.9"></path><g><path class="st3" d="M164.7,60.3v-25.7h3v25.7h-3Z"></path><path class="st3" d="M186.7,60.3h-2.9v-13.4c0-.9-.2-1.5-.7-1.8-.4-.4-1.1-.5-1.9-.5s-2,.2-3,.5-1.8.7-2.6,1.1v14.1h-2.9v-17.9h2.2l.3,1.3h0c1.9-1.1,4-1.6,6.2-1.6s2.8.4,3.7,1.1c.9.7,1.4,1.8,1.4,3.3v13.9Z"></path><path class="st3" d="M202.3,56c0,.8-.2,1.5-.5,2.1-.4.6-.8,1.1-1.4,1.4s-1.3.7-2.1.8c-.8.2-1.7.3-2.6.3s-.7,0-1.1,0c-.4,0-.9,0-1.3,0s-.9,0-1.3-.1c-.4,0-.8-.1-1.1-.2v-2.6c.6,0,1.3.2,2.1.2s1.7.1,2.6.1,1,0,1.5,0c.5,0,.9-.2,1.3-.3s.6-.4.9-.7c.2-.3.3-.6.3-1s-.2-.9-.5-1.2c-.3-.3-.7-.6-1.1-.9l-4.1-2.6c-.4-.3-.8-.5-1.2-.8-.4-.3-.7-.6-1.1-1-.3-.4-.6-.8-.8-1.3-.2-.5-.3-1.1-.3-1.7,0-1.6.5-2.7,1.6-3.4,1.1-.7,2.6-1,4.5-1s1.4,0,2.3,0,1.7.1,2.4.2v2.6c-.5,0-1.1-.1-1.8-.2-.7,0-1.5-.1-2.3-.1s-1,0-1.4,0c-.5,0-.9.1-1.2.2s-.6.3-.8.6c-.2.2-.3.6-.3,1s.2,1,.5,1.3.6.6,1,.8l4.3,2.7c.5.3,1,.6,1.4,1,.4.3.8.6,1,1s.5.8.6,1.2c.2.5.2,1,.2,1.6Z"></path><path class="st3" d="M209.7,45v11.2c0,.5.1.9.3,1.2s.7.5,1.4.5,1,0,1.7-.1,1.3-.2,1.9-.3v2.5c-1.2.3-2.5.5-3.8.5s-1.6-.1-2.2-.3c-.6-.2-1-.5-1.4-.9s-.6-.8-.7-1.3c-.1-.5-.2-1-.2-1.5v-11.6h-2.7v-2.2l2.8-.4v-4.8h2.9v4.8h5.4v2.7h-5.4Z"></path><path class="st3" d="M218.3,38.1v-3.7h3.2v3.7h-3.2ZM218.5,60.3v-17.9h2.9v17.9h-2.9Z"></path><path class="st3" d="M230.2,45v11.2c0,.5.1.9.3,1.2s.7.5,1.4.5,1,0,1.7-.1,1.3-.2,1.9-.3v2.5c-1.2.3-2.5.5-3.8.5s-1.6-.1-2.2-.3c-.6-.2-1-.5-1.4-.9s-.6-.8-.7-1.3c-.1-.5-.2-1-.2-1.5v-11.6h-2.7v-2.2l2.8-.4v-4.8h2.9v4.8h5.4v2.7h-5.4Z"></path><path class="st3" d="M238.6,42.4h2.9v13.4c0,.9.2,1.5.7,1.8.4.4,1.1.5,1.9.5s2-.2,3-.5,1.8-.7,2.6-1.1v-14.1h2.9v17.9h-2.2l-.3-1.3h0c-1.9,1.1-4,1.6-6.2,1.6s-2.8-.4-3.7-1.1c-.9-.7-1.4-1.9-1.4-3.3v-13.9Z"></path><path class="st3" d="M261.2,45v11.2c0,.5.1.9.3,1.2s.7.5,1.4.5,1,0,1.7-.1,1.3-.2,1.9-.3v2.5c-1.2.3-2.5.5-3.8.5s-1.6-.1-2.2-.3c-.6-.2-1-.5-1.4-.9s-.6-.8-.7-1.3c-.1-.5-.2-1-.2-1.5v-11.6h-2.7v-2.2l2.8-.4v-4.8h2.9v4.8h5.4v2.7h-5.4Z"></path><path class="st3" d="M284.2,51.3c0,3.4-.6,5.7-1.9,7.2-1.3,1.4-3.2,2.2-5.8,2.2s-4.5-.7-5.8-2.2-2-3.8-2-7.2.7-5.7,2-7.2c1.3-1.4,3.2-2.2,5.8-2.2s4.5.7,5.8,2.2c1.3,1.4,1.9,3.8,1.9,7.2ZM281.2,51.3c0-1.3-.1-2.5-.3-3.3s-.5-1.5-1-2.1-.9-.9-1.5-1c-.6-.2-1.2-.3-2-.3s-1.4,0-1.9.3c-.6.2-1.1.5-1.5,1-.4.5-.7,1.2-1,2.1-.2.9-.3,2-.3,3.3s.1,2.5.3,3.3c.2.9.6,1.5,1,2,.4.5.9.8,1.5,1,.6.2,1.2.3,1.9.3s1.4,0,2-.3c.6-.2,1.1-.5,1.5-1s.7-1.2,1-2,.3-2,.3-3.3Z"></path><path class="st3" d="M294.5,51.5c0-3.4.6-5.8,1.7-7.3,1.1-1.5,2.9-2.2,5.4-2.2s1.3,0,2.2.2c.8.1,1.6.3,2.4.6v-9.3h2.9v26.9h-2.2l-.3-1.3h0c-.7.4-1.5.8-2.4,1.1-.9.3-1.8.5-2.9.5-2.4,0-4.1-.7-5.2-2.2-1.1-1.5-1.6-3.8-1.6-7ZM297.5,51.4c0,1.2,0,2.3.2,3.1.2.9.4,1.5.7,2.1s.8.9,1.3,1.1c.5.2,1.1.3,1.9.3s1.7-.2,2.5-.5c.8-.4,1.5-.7,2.1-1.1v-11c-.6-.3-1.3-.5-2-.7-.7-.2-1.5-.2-2.2-.2s-1.5.1-2.1.3c-.6.2-1.1.6-1.4,1.1-.4.5-.6,1.2-.8,2.1-.2.9-.3,2-.3,3.4Z"></path><path class="st3" d="M326.9,51.7h-10.7c0,1.3.1,2.4.4,3.2.3.8.6,1.5,1,1.9.4.5.9.8,1.5.9.6.2,1.2.2,2,.2s1.6,0,2.5-.2c.9-.1,1.7-.2,2.6-.4v2.6c-.6.2-1.4.4-2.3.5-.9.1-1.8.2-2.6.2-1.3,0-2.5-.2-3.5-.5-1-.3-1.8-.8-2.5-1.6-.7-.7-1.2-1.7-1.6-2.9-.4-1.2-.5-2.7-.5-4.6,0-3.2.6-5.6,1.8-7,1.2-1.4,3.1-2.1,5.7-2.1s2.3.2,3.1.5c.8.4,1.4.9,1.9,1.5.5.7.8,1.4,1,2.4s.3,1.9.3,3.1v2.2ZM324,49.3c0-.7,0-1.4,0-1.9,0-.6-.2-1.1-.4-1.5-.2-.4-.6-.8-1-1-.4-.2-1.1-.4-1.8-.4s-1.3,0-1.8.2c-.5.2-.9.4-1.3.8s-.6.8-.8,1.5c-.2.6-.3,1.4-.4,2.4h7.7Z"></path><path class="st3" d="M352,54.2c0,1.3-.3,2.3-.8,3.1-.5.8-1.2,1.5-2.1,2-.9.5-1.8.8-2.9,1-1.1.2-2.2.3-3.3.3s-2,0-3-.1-1.9-.2-2.6-.3l.2-3c.9.1,1.8.2,2.8.3,1,0,1.9.1,3,.1s1.4,0,2.1-.2c.7-.1,1.2-.3,1.8-.5.5-.3.9-.6,1.2-1,.3-.4.5-1,.5-1.7,0-1-.2-1.7-.7-2.2-.5-.5-1-1-1.6-1.4l-5.3-3.8c-.5-.3-.9-.7-1.4-1-.5-.4-.9-.9-1.4-1.4-.4-.5-.8-1.1-1-1.8-.3-.7-.4-1.5-.4-2.4s.2-2.2.6-3c.4-.8,1-1.4,1.7-1.8.7-.4,1.6-.8,2.6-.9,1-.2,2-.3,3.1-.3s1.7,0,2.7,0,1.9.1,2.7.3l-.2,2.9c-.8-.1-1.7-.2-2.6-.2-.9,0-1.9,0-2.9,0s-2.5.2-3.3.6c-.8.4-1.2,1.2-1.2,2.5s.2,1.6.7,2.2c.5.5.9,1,1.4,1.4l5.5,3.9c.7.5,1.3.9,1.8,1.3.5.4,1,.9,1.3,1.4s.6,1.1.8,1.7c.2.6.3,1.3.3,2.2Z"></path><path class="st3" d="M365.5,60.3l-.2-1.1h0c-.7.4-1.5.8-2.4,1s-1.8.4-2.7.4-1.4,0-2.1-.3-1.3-.5-1.8-.9c-.5-.4-.9-.9-1.3-1.6s-.5-1.4-.5-2.4,0-1.1.2-1.8c.2-.7.5-1.3,1.1-1.8.5-.5,1.1-.8,1.8-1.1.7-.3,1.5-.4,2.3-.6.8-.1,1.7-.2,2.5-.2.8,0,1.6,0,2.4,0v-2.8c0-1-.3-1.6-.8-1.9-.5-.3-1.3-.5-2.3-.5s-2,0-3.1.2c-1.1.2-2,.3-2.6.5v-2.6c.2-.1.7-.2,1.1-.3.5,0,1-.2,1.5-.2.5,0,1-.1,1.6-.2s1,0,1.5,0c.8,0,1.6,0,2.3.2.7.1,1.4.4,1.9.7.6.3,1,.8,1.3,1.4s.5,1.3.5,2.2v13.9h-2.2ZM364.9,52.2c-.5,0-1,0-1.7,0-.7,0-1.3,0-2,.1-.7,0-1.3.2-1.8.4-.6.2-1,.4-1.3.7-.3.3-.5.6-.5,1,0,.4,0,.7,0,1,0,1,.3,1.8.8,2.1.6.4,1.2.6,2,.6s1.7-.1,2.5-.4c.8-.3,1.5-.6,2-1v-4.5Z"></path><path class="st3" d="M372.4,60.3v-26.9h2.9v26.9h-2.9Z"></path><path class="st3" d="M379.9,42.4h2.9v13.4c0,.9.2,1.5.7,1.8.4.4,1.1.5,1.9.5s2-.2,3-.5,1.8-.7,2.6-1.1v-14.1h2.9v17.9h-2.2l-.3-1.3h0c-1.9,1.1-4,1.6-6.2,1.6s-2.8-.4-3.7-1.1c-.9-.7-1.4-1.9-1.4-3.3v-13.9Z"></path><path class="st3" d="M397.6,51.5c0-3.4.6-5.8,1.7-7.3,1.1-1.5,2.9-2.2,5.4-2.2s1.3,0,2.2.2c.8.1,1.6.3,2.4.6v-9.3h2.9v26.9h-2.2l-.3-1.3h0c-.7.4-1.5.8-2.4,1.1-.9.3-1.8.5-2.9.5-2.4,0-4.1-.7-5.2-2.2-1.1-1.5-1.6-3.8-1.6-7ZM400.6,51.4c0,1.2,0,2.3.2,3.1.2.9.4,1.5.7,2.1s.8.9,1.3,1.1c.5.2,1.1.3,1.9.3s1.7-.2,2.5-.5c.8-.4,1.5-.7,2.1-1.1v-11c-.6-.3-1.3-.5-2-.7-.7-.2-1.5-.2-2.2-.2s-1.5.1-2.1.3c-.6.2-1.1.6-1.4,1.1-.4.5-.6,1.2-.8,2.1-.2.9-.3,2-.3,3.4Z"></path><path class="st3" d="M180.4,88.2c0,1.1-.1,2.2-.3,3.1s-.6,1.8-1.1,2.5c-.5.7-1.1,1.3-2,1.7s-1.8.6-3,.6h-6.4v9.9h-3v-25.7h9.6c1.2,0,2.2.2,3,.6.8.4,1.4,1,1.9,1.7.5.7.8,1.5,1,2.5.2,1,.3,2,.3,3.1ZM177.4,88.2c0-1.5-.3-2.8-.8-3.7-.5-.9-1.5-1.4-2.8-1.4h-6.1v10.1h6.1c1.4,0,2.3-.5,2.8-1.4.5-.9.8-2.1.8-3.7Z"></path><path class="st3" d="M183.4,88.1h2.9v13.4c0,.9.2,1.5.7,1.8.4.4,1.1.5,1.9.5s2-.2,3-.5,1.8-.7,2.6-1.1v-14.1h2.9v17.9h-2.2l-.3-1.3h0c-1.9,1.1-4,1.6-6.2,1.6s-2.8-.4-3.7-1.1c-.9-.7-1.4-1.8-1.4-3.3v-13.9ZM191.2,85.4h-2.2l2.2-5.6h3.5l-3.5,5.6Z"></path><path class="st3" d="M216.6,96.9c0,3.4-.6,5.8-1.7,7.3s-2.9,2.2-5.4,2.2-1.7-.1-2.7-.4c-1-.3-1.7-.6-2.4-.9l-.3,1h-2.2v-26.9h2.9v10h0c.7-.4,1.4-.7,2.3-1s1.7-.4,2.6-.4c2.4,0,4.1.7,5.2,2.2,1.1,1.5,1.6,3.8,1.6,7ZM213.7,96.9c0-1.2,0-2.3-.2-3.1-.2-.9-.4-1.5-.7-2.1s-.8-.9-1.3-1.1c-.5-.2-1.1-.3-1.9-.3s-1.7.2-2.5.5c-.8.4-1.5.7-2.1,1.1v10.6c.5.4,1.2.7,1.9,1,.8.3,1.5.4,2.2.4s1.5-.1,2.1-.3c.6-.2,1-.6,1.4-1.1.4-.5.6-1.2.8-2.1.2-.9.3-2,.3-3.4Z"></path><path class="st3" d="M220.7,106v-26.9h2.9v26.9h-2.9Z"></path><path class="st3" d="M228.4,83.8v-3.7h3.2v3.7h-3.2ZM228.5,106v-17.9h2.9v17.9h-2.9Z"></path><path class="st3" d="M235.4,97.1c0-1.7.2-3.2.5-4.4.3-1.2.8-2.2,1.5-2.9.7-.7,1.5-1.3,2.5-1.6,1-.3,2.2-.5,3.5-.5s1.3,0,2,0c.7,0,1.4.2,2.1.3v2.6c-.7-.1-1.4-.2-2.2-.3-.7,0-1.4,0-1.9,0-1.1,0-2,.2-2.7.6-.7.4-1.2,1-1.5,1.6s-.6,1.4-.7,2.2c-.1.8-.2,1.6-.2,2.3,0,1.3.1,2.4.4,3.3s.6,1.5,1,2c.4.5,1,.8,1.6,1,.6.2,1.3.3,2,.3s1.4,0,2.1-.1,1.5-.2,2.2-.3v2.6c-.6.2-1.3.3-2.1.3-.8,0-1.5.1-2.1.1-1.3,0-2.5-.2-3.5-.5s-1.8-.8-2.5-1.6c-.7-.7-1.2-1.7-1.5-2.9-.3-1.2-.5-2.6-.5-4.4Z"></path><path class="st3" d="M260.9,106l-.2-1.1h0c-.7.4-1.5.8-2.4,1-.9.2-1.8.4-2.7.4s-1.4,0-2.1-.3-1.3-.5-1.8-.9-.9-1-1.3-1.6c-.3-.6-.5-1.4-.5-2.4s0-1.1.2-1.8c.2-.7.5-1.3,1.1-1.9.5-.5,1.1-.8,1.8-1.1.7-.3,1.5-.4,2.3-.6.8-.1,1.7-.2,2.5-.2.8,0,1.6,0,2.4,0v-2.8c0-1-.3-1.6-.8-1.9-.5-.3-1.3-.5-2.3-.5s-2,0-3.1.2c-1.1.2-2,.3-2.6.5v-2.6c.2-.1.7-.2,1.1-.3.5,0,1-.2,1.5-.2.5,0,1-.1,1.6-.2s1,0,1.5,0c.8,0,1.6,0,2.3.2.7.1,1.4.4,1.9.7.6.3,1,.8,1.3,1.4s.5,1.3.5,2.2v13.9h-2.2ZM260.3,97.9c-.5,0-1,0-1.7,0-.7,0-1.3,0-2,.1s-1.3.2-1.8.4c-.6.2-1,.4-1.3.7-.3.3-.5.6-.5,1,0,.4,0,.7,0,1,0,1,.3,1.8.8,2.1.6.4,1.2.6,2,.6s1.7-.1,2.5-.4c.8-.3,1.5-.6,2-1v-4.5Z"></path><path class="st3" d="M274.1,97.2c0-3.4.6-5.8,1.7-7.3,1.1-1.5,2.9-2.2,5.4-2.2s1.3,0,2.2.2c.8.1,1.6.3,2.4.6v-9.3h2.9v26.9h-2.2l-.3-1.3h0c-.7.4-1.5.8-2.4,1.1-.9.3-1.8.5-2.9.5-2.4,0-4.1-.7-5.2-2.2-1.1-1.5-1.6-3.8-1.6-7ZM277.1,97.2c0,1.2,0,2.3.2,3.1.2.8.4,1.5.7,2.1.3.5.8.9,1.3,1.1.5.2,1.1.3,1.9.3s1.7-.2,2.5-.5c.8-.4,1.5-.7,2.1-1.1v-11c-.6-.3-1.3-.5-2-.7-.7-.2-1.5-.2-2.2-.2s-1.5.1-2.1.3c-.6.2-1.1.6-1.4,1.1s-.6,1.2-.8,2.1c-.2.9-.3,2-.3,3.4Z"></path><path class="st3" d="M306.5,97.4h-10.7c0,1.3.1,2.4.4,3.2s.6,1.5,1,1.9c.4.5.9.8,1.5.9.6.2,1.2.2,2,.2s1.6,0,2.5-.2c.9-.1,1.7-.2,2.6-.4v2.6c-.6.2-1.4.4-2.3.5-.9.1-1.8.2-2.6.2-1.3,0-2.5-.2-3.5-.5s-1.8-.8-2.5-1.6c-.7-.7-1.2-1.7-1.6-2.9s-.5-2.7-.5-4.6c0-3.3.6-5.6,1.8-7,1.2-1.4,3.1-2.1,5.7-2.1s2.3.2,3.1.5c.8.4,1.4.9,1.9,1.5.5.7.8,1.4,1,2.4.2.9.3,1.9.3,3.1v2.2ZM303.6,95c0-.7,0-1.4,0-1.9,0-.6-.2-1.1-.4-1.5-.2-.4-.6-.8-1-1-.4-.2-1.1-.4-1.8-.4s-1.3,0-1.8.2-.9.4-1.3.8-.6.8-.8,1.5c-.2.6-.3,1.4-.4,2.4h7.7Z"></path><path class="st3" d="M333.9,88.2c0,1.1-.1,2.2-.3,3.1s-.6,1.8-1.1,2.5c-.5.7-1.1,1.3-2,1.7s-1.8.6-3,.6h-6.4v9.9h-3v-25.7h9.6c1.2,0,2.2.2,3,.6.8.4,1.4,1,1.9,1.7.5.7.8,1.5,1,2.5.2,1,.3,2,.3,3.1ZM330.8,88.2c0-1.5-.3-2.8-.8-3.7-.5-.9-1.5-1.4-2.8-1.4h-6.1v10.1h6.1c1.4,0,2.3-.5,2.8-1.4.5-.9.8-2.1.8-3.7Z"></path><path class="st3" d="M336.9,88.1h2.9v13.4c0,.9.2,1.5.7,1.8.4.4,1.1.5,1.9.5s2-.2,3-.5,1.8-.7,2.6-1.1v-14.1h2.9v17.9h-2.2l-.3-1.3h0c-1.9,1.1-4,1.6-6.2,1.6s-2.8-.4-3.7-1.1c-.9-.7-1.4-1.8-1.4-3.3v-13.9Z"></path><path class="st3" d="M368.3,97.4h-10.7c0,1.3.1,2.4.4,3.2s.6,1.5,1,1.9c.4.5.9.8,1.5.9.6.2,1.2.2,2,.2s1.6,0,2.5-.2c.9-.1,1.7-.2,2.6-.4v2.6c-.6.2-1.4.4-2.3.5-.9.1-1.8.2-2.6.2-1.3,0-2.5-.2-3.5-.5s-1.8-.8-2.5-1.6c-.7-.7-1.2-1.7-1.6-2.9s-.5-2.7-.5-4.6c0-3.3.6-5.6,1.8-7,1.2-1.4,3.1-2.1,5.7-2.1s2.3.2,3.1.5c.8.4,1.4.9,1.9,1.5.5.7.8,1.4,1,2.4.2.9.3,1.9.3,3.1v2.2ZM365.4,95c0-.7,0-1.4,0-1.9,0-.6-.2-1.1-.4-1.5-.2-.4-.6-.8-1-1-.4-.2-1.1-.4-1.8-.4s-1.3,0-1.8.2-.9.4-1.3.8-.6.8-.8,1.5c-.2.6-.3,1.4-.4,2.4h7.7Z"></path><path class="st3" d="M380.9,90.6c-.2,0-.3,0-.6,0-.2,0-.4,0-.6,0-1,0-1.8.2-2.6.6-.8.4-1.5,1-2.1,1.8v13.1h-2.9v-17.9h2.2l.4,1.8h0c.7-.7,1.4-1.3,2.1-1.6s1.7-.5,2.7-.5.4,0,.7,0c.3,0,.5,0,.7,0v2.7Z"></path><path class="st3" d="M388.6,90.8v11.2c0,.5.1.9.3,1.2s.7.5,1.4.5,1,0,1.7-.1,1.3-.2,1.9-.3v2.5c-1.2.3-2.5.5-3.8.5s-1.6-.1-2.2-.3c-.6-.2-1-.5-1.4-.9-.3-.4-.6-.8-.7-1.3-.1-.5-.2-1-.2-1.5v-11.6h-2.7v-2.2l2.8-.4v-4.8h2.9v4.8h5.4v2.7h-5.4Z"></path><path class="st3" d="M411.6,97c0,3.4-.6,5.7-1.9,7.2-1.3,1.4-3.2,2.2-5.8,2.2s-4.5-.7-5.8-2.2c-1.3-1.4-2-3.8-2-7.2s.7-5.7,2-7.2c1.3-1.4,3.2-2.2,5.8-2.2s4.5.7,5.8,2.2c1.3,1.4,1.9,3.8,1.9,7.2ZM408.6,97c0-1.3-.1-2.5-.3-3.3s-.5-1.5-1-2.1-.9-.9-1.5-1c-.6-.2-1.2-.3-2-.3s-1.4,0-1.9.3c-.6.2-1.1.5-1.5,1-.4.5-.7,1.2-1,2.1-.2.9-.3,2-.3,3.3s.1,2.5.3,3.3c.2.9.6,1.5,1,2,.4.5.9.8,1.5,1,.6.2,1.2.3,1.9.3s1.4,0,2-.3c.6-.2,1.1-.5,1.5-1,.4-.5.7-1.2,1-2s.3-2,.3-3.3Z"></path><path class="st3" d="M439,87.9c0,1,0,1.9-.3,2.8-.2.8-.5,1.6-.9,2.2-.4.6-.9,1.2-1.6,1.6-.7.4-1.5.7-2.5.8l5.4,10.7h-3.4l-5.3-10.6h-4.3v10.6h-3v-25.7h9.6c1.2,0,2.2.2,3,.6s1.4.9,1.9,1.6c.5.7.8,1.5,1,2.4.2.9.3,1.9.3,3ZM435.9,87.9c0-1.4-.3-2.6-.8-3.5-.5-.9-1.5-1.3-2.8-1.3h-6.1v9.4h6.1c1.4,0,2.3-.4,2.8-1.3.5-.8.8-2,.8-3.4Z"></path><path class="st3" d="M442.8,83.8v-3.7h3.2v3.7h-3.2ZM442.9,106v-17.9h2.9v17.9h-2.9Z"></path><path class="st3" d="M449.8,97.1c0-1.7.2-3.2.5-4.4.3-1.2.8-2.2,1.5-2.9.7-.7,1.5-1.3,2.5-1.6,1-.3,2.2-.5,3.5-.5s1.3,0,2,0c.7,0,1.4.2,2.1.3v2.6c-.7-.1-1.4-.2-2.2-.3-.7,0-1.4,0-1.9,0-1.1,0-2,.2-2.7.6-.7.4-1.2,1-1.5,1.6s-.6,1.4-.7,2.2c-.1.8-.2,1.6-.2,2.3,0,1.3.1,2.4.4,3.3s.6,1.5,1,2c.4.5,1,.8,1.6,1,.6.2,1.3.3,2,.3s1.4,0,2.1-.1,1.5-.2,2.2-.3v2.6c-.6.2-1.3.3-2.1.3-.8,0-1.5.1-2.1.1-1.3,0-2.5-.2-3.5-.5s-1.8-.8-2.5-1.6c-.7-.7-1.2-1.7-1.5-2.9-.3-1.2-.5-2.6-.5-4.4Z"></path><path class="st3" d="M480.3,97c0,3.4-.6,5.7-1.9,7.2-1.3,1.4-3.2,2.2-5.8,2.2s-4.5-.7-5.8-2.2c-1.3-1.4-2-3.8-2-7.2s.7-5.7,2-7.2c1.3-1.4,3.2-2.2,5.8-2.2s4.5.7,5.8,2.2c1.3,1.4,1.9,3.8,1.9,7.2ZM477.3,97c0-1.3-.1-2.5-.3-3.3s-.5-1.5-1-2.1-.9-.9-1.5-1c-.6-.2-1.2-.3-2-.3s-1.4,0-1.9.3c-.6.2-1.1.5-1.5,1-.4.5-.7,1.2-1,2.1-.2.9-.3,2-.3,3.3s.1,2.5.3,3.3c.2.9.6,1.5,1,2,.4.5.9.8,1.5,1,.6.2,1.2.3,1.9.3s1.4,0,2-.3c.6-.2,1.1-.5,1.5-1,.4-.5.7-1.2,1-2s.3-2,.3-3.3Z"></path></g></svg> 